<?xml version="1.0" standalone="no"?>
<!DOCTYPE svg PUBLIC "-//W3C//DTD SVG 20010904//EN"
 "http://www.w3.org/TR/2001/REC-SVG-20010904/DTD/svg10.dtd">
<svg version="1.0" xmlns="http://www.w3.org/2000/svg"
   width="1080.000000pt" height="1080.000000pt" viewBox="0 0 1080.000000 1080.000000"
 preserveAspectRatio="xMidYMid meet"> 

<g transform="translate(0.000000,1080.000000) scale(0.100000,-0.100000)"
 stroke="none">
<path d="M1326 7019 c-51 -40 -51 -39 -56 -460 -5 -379 -6 -398 -25 -419 -43
-48 -59 -50 -466 -50 l-381 0 -34 -34 -34 -34 0 -399 c0 -441 -1 -431 65 -459
25 -10 53 -11 131 -3 335 32 672 164 944 368 158 119 355 332 458 496 163 261
281 632 282 889 0 53 -3 61 -34 92 l-34 34 -395 0 c-384 0 -395 -1 -421 -21z"/>
<path d="M8625 6314 c-44 -8 -95 -16 -112 -19 l-33 -6 0 -659 c0 -362 4 -661
8 -664 5 -3 60 -14 123 -26 148 -27 331 -29 414 -5 237 68 353 271 323 565
-20 199 -114 333 -269 381 -73 23 -182 25 -259 4 -30 -8 -58 -15 -62 -15 -4 0
-9 102 -10 228 -3 262 10 239 -123 216z m368 -661 c21 -12 43 -39 61 -76 25
-51 29 -70 30 -145 0 -155 -49 -248 -147 -277 -54 -16 -105 -19 -156 -9 l-31
7 0 247 0 248 33 11 c79 25 160 22 210 -6z"/>
<path d="M4810 6248 c-35 -18 -63 -80 -55 -118 8 -37 49 -77 87 -85 42 -10 98
21 115 64 17 41 6 96 -26 125 -25 23 -89 30 -121 14z"/>
<path d="M6755 6204 c-128 -27 -212 -64 -291 -128 -169 -137 -250 -377 -215
-637 37 -277 176 -444 421 -505 108 -27 315 -25 427 5 102 27 173 56 173 73 0
13 -60 200 -66 207 -2 3 -41 -9 -87 -25 -74 -26 -94 -29 -212 -29 -123 0 -133
1 -188 29 -76 38 -130 100 -159 184 -19 55 -23 88 -23 187 0 103 3 129 24 183
30 79 104 163 164 187 115 47 267 36 439 -30 19 -8 19 -9 69 130 27 74 28 81
12 92 -27 21 -114 50 -196 67 -69 15 -241 20 -292 10z"/>
<path d="M3810 6189 c-52 -5 -113 -13 -135 -17 l-40 -8 0 -604 0 -605 90 -12
c212 -27 470 -11 600 39 76 29 155 102 186 170 34 76 34 222 1 290 -29 58 -79
103 -150 136 l-54 24 49 33 c89 60 130 148 121 259 -6 76 -28 123 -79 176 -69
71 -150 101 -324 120 -101 11 -130 11 -265 -1z m365 -168 c27 -12 61 -32 74
-44 54 -50 66 -134 29 -207 -19 -37 -34 -51 -83 -75 -58 -29 -65 -30 -227 -34
l-168 -3 0 189 c0 104 3 193 8 197 4 5 77 6 162 4 133 -4 162 -7 205 -27z
m-25 -512 c84 -13 144 -42 178 -86 21 -29 27 -49 30 -104 10 -162 -92 -235
-344 -246 -66 -3 -142 -3 -167 1 l-47 7 0 220 0 219 143 0 c78 0 171 -5 207
-11z"/>
<path d="M2930 6083 c-64 -6 -239 -44 -322 -68 -295 -89 -556 -245 -781 -469
-246 -243 -417 -545 -501 -886 -25 -99 -46 -248 -46 -321 0 -56 4 -70 25 -93
13 -14 36 -31 50 -36 16 -6 175 -10 393 -10 337 0 370 2 402 18 69 37 70 42
70 467 1 411 1 409 56 446 27 18 50 19 407 19 415 0 432 2 461 59 14 26 16 86
16 422 l0 391 -34 34 c-32 32 -38 34 -97 32 -35 0 -80 -3 -99 -5z"/>
<path d="M9779 5900 c-86 -10 -178 -29 -183 -38 -4 -7 20 -175 29 -198 2 -9
19 -8 62 3 32 7 103 15 158 16 149 2 201 -28 212 -126 l5 -43 -120 4 c-264 10
-405 -68 -433 -239 -19 -112 16 -220 91 -281 65 -52 139 -71 300 -76 119 -3
169 0 275 18 72 12 132 23 134 25 6 7 2 646 -5 683 -10 56 -54 140 -89 169
-90 77 -241 105 -436 83z m259 -560 c21 0 22 -3 22 -104 l0 -105 -56 -6 c-101
-13 -201 11 -224 54 -5 11 -10 37 -10 59 0 50 34 88 86 97 22 4 44 8 49 11 6
2 33 1 60 -1 28 -3 60 -5 73 -5z"/>
<path d="M5575 5893 c-223 -25 -370 -190 -390 -438 -25 -310 159 -537 435
-536 175 0 305 81 382 236 74 149 70 362 -9 519 -54 106 -183 198 -294 211
-30 3 -63 7 -74 9 -11 1 -33 1 -50 -1z m116 -153 c55 -15 100 -50 135 -103 43
-65 58 -144 52 -270 -5 -121 -27 -176 -94 -243 -33 -34 -53 -44 -100 -54 -219
-46 -355 125 -323 406 22 200 161 311 330 264z"/>
<path d="M7410 5593 c0 -159 5 -319 10 -357 21 -142 93 -241 209 -288 51 -21
71 -23 231 -22 127 1 200 7 265 21 l90 18 3 458 2 457 -130 0 -130 0 0 -364 0
-363 -58 -6 c-121 -13 -180 13 -206 90 -13 38 -16 98 -16 345 l0 298 -135 0
-135 0 0 -287z"/>
<path d="M4780 5405 l0 -465 80 0 80 0 0 465 0 465 -80 0 -80 0 0 -465z"/>
<path d="M4690 4662 l-25 -8 0 -219 0 -220 47 -3 47 -3 3 83 3 83 30 0 c26 0
35 -9 80 -82 l50 -83 53 0 c28 0 52 4 52 8 0 5 -24 48 -54 95 l-54 87 28 17
c36 21 50 52 50 112 0 55 -23 92 -73 118 -35 18 -194 28 -237 15z m190 -92
c14 -7 20 -21 20 -45 0 -44 -29 -65 -92 -65 l-48 0 0 58 c0 32 3 62 8 66 9 10
86 0 112 -14z"/>
<path d="M5264 4662 c-28 -3 -32 -7 -38 -44 -10 -60 -26 -273 -26 -345 l0 -63
44 0 44 0 7 138 c4 75 10 141 13 146 6 10 24 -26 72 -141 33 -81 35 -83 67
-83 33 0 36 3 64 68 76 172 73 167 80 141 4 -13 7 -51 8 -85 1 -34 4 -89 7
-123 l7 -61 45 0 45 0 -7 128 c-3 70 -11 170 -18 224 l-11 96 -45 4 -45 3 -47
-100 c-26 -55 -54 -116 -62 -135 l-16 -35 -38 85 c-87 191 -85 189 -150 182z"/>
<path d="M6065 4662 c-28 -3 -33 -11 -72 -100 -57 -130 -132 -335 -127 -344 3
-5 25 -8 49 -8 44 0 44 0 62 50 l18 50 90 0 91 0 18 -50 18 -50 49 0 c27 0 49
4 49 10 0 14 -71 201 -125 329 -49 116 -53 120 -120 113z m62 -200 c12 -36 23
-67 23 -68 0 -2 -29 -4 -65 -4 -36 0 -65 2 -65 5 0 3 14 42 31 87 36 91 35 91
76 -20z"/>
<path d="M6577 4656 c-78 -34 -126 -116 -127 -211 0 -87 16 -134 64 -181 62
-63 160 -78 274 -43 36 12 36 13 21 58 -10 29 -14 32 -38 24 -14 -4 -54 -8
-87 -8 -48 0 -67 5 -84 20 -72 64 -65 208 12 255 37 22 75 25 132 9 44 -12 53
-6 62 37 5 29 3 32 -27 43 -42 15 -166 13 -202 -3z"/>
<path d="M7449 4660 c-4 -3 -20 -33 -35 -65 -31 -69 -144 -365 -144 -377 0 -4
22 -8 49 -8 l49 0 17 50 17 50 91 0 92 0 18 -50 18 -50 49 0 c28 0 50 4 50 9
0 10 -78 217 -116 306 -47 111 -59 135 -69 136 -44 4 -78 3 -86 -1z m81 -188
l30 -82 -65 0 c-36 0 -65 3 -65 8 0 6 9 30 49 136 7 16 14 27 16 24 3 -3 19
-42 35 -86z"/>
<path d="M3632 4438 l3 -223 48 -3 47 -3 0 95 0 96 90 0 90 0 0 40 0 39 -87 3
-88 3 -3 48 -3 47 100 0 101 0 0 40 0 40 -150 0 -150 0 2 -222z"/>

</g>
</svg>
